<?xml version="1.0" standalone="no"?>
<!DOCTYPE svg PUBLIC "-//W3C//DTD SVG 20010904//EN"
 "http://www.w3.org/TR/2001/REC-SVG-20010904/DTD/svg10.dtd">
<svg version="1.0" xmlns="http://www.w3.org/2000/svg"
 width="408.000000pt" height="408.000000pt" viewBox="0 0 408.000000 408.000000"
 preserveAspectRatio="xMidYMid meet">
<metadata>
Created by potrace 1.16, written by Peter Selinger 2001-2019
</metadata>
<g transform="translate(0.000000,408.000000) scale(0.100000,-0.100000)"
fill="#000000" stroke="none">
<path d="M2236 2684 c-134 -32 -276 -124 -367 -238 -184 -228 -198 -559 -35
-804 82 -124 204 -219 348 -269 97 -35 280 -44 378 -19 198 50 368 185 454
360 52 105 70 184 70 306 0 122 -18 201 -70 306 -85 173 -255 309 -449 359
-74 19 -249 19 -329 -1z m273 -45 c186 -30 369 -165 453 -334 53 -106 63 -151
62 -290 0 -114 -3 -138 -26 -197 -94 -249 -302 -407 -555 -424 -292 -20 -563
172 -649 461 -25 82 -25 248 0 330 51 171 174 319 326 394 133 65 249 83 389
60z"/>
<path d="M733 2645 c-56 -24 -67 -60 -71 -235 -3 -100 0 -171 8 -199 14 -53
59 -101 94 -101 23 0 26 4 26 38 0 27 -6 41 -20 50 -19 12 -20 21 -18 190 l3
177 30 0 30 0 6 -100 c9 -165 38 -215 126 -215 88 0 123 55 123 196 0 96 10
124 44 124 30 0 36 -21 36 -127 0 -137 35 -193 122 -193 89 0 117 47 127 204
l6 111 30 0 30 0 0 -157 0 -156 -31 -39 c-21 -26 -68 -57 -144 -98 -73 -39
-122 -72 -139 -94 l-26 -34 -3 -259 -3 -258 51 0 50 0 0 243 c0 207 2 246 16
266 9 12 57 43 108 67 180 86 208 129 214 334 5 150 -6 209 -43 245 -32 33
-88 42 -131 22 -51 -25 -67 -66 -72 -187 -4 -111 -12 -133 -46 -128 -26 4 -33
34 -35 141 -2 129 -37 182 -121 182 -85 0 -119 -53 -121 -187 -1 -103 -9 -132
-35 -136 -34 -5 -42 17 -46 128 -5 118 -20 160 -68 185 -36 18 -65 19 -107 0z"/>
<path d="M3270 2572 c0 -4 -25 -198 -55 -430 -31 -233 -53 -427 -50 -432 3 -4
29 -14 57 -20 63 -15 114 -40 156 -75 l31 -26 3 -157 3 -157 38 -3 37 -3 0
559 c0 621 2 596 -67 673 -20 22 -54 49 -74 60 -39 19 -79 25 -79 11z m70 -39
c42 -27 81 -67 98 -98 15 -27 18 -92 22 -583 4 -438 2 -552 -7 -552 -10 0 -13
36 -13 149 l0 149 -41 37 c-48 43 -106 71 -168 81 -42 7 -42 7 -37 43 3 20 26
196 51 391 50 388 52 400 63 400 4 0 19 -7 32 -17z"/>
</g>
</svg>
